<?xml version="1.0" standalone="no"?>
<!DOCTYPE svg PUBLIC "-//W3C//DTD SVG 1.1//EN" "http://www.w3.org/Graphics/SVG/1.1/DTD/svg11.dtd">
<svg xmlns="http://www.w3.org/2000/svg" xmlns:xlink="http://www.w3.org/1999/xlink" version="1.1"
	id="layer" x="0px" y="0px" viewBox="-153 -46 652 652"
	style="enable-background:new -153 -46 652 652;" xml:space="preserve" width="652" height="652">
<style type="text/css">
	.st0{fill:#fff;}
</style>
<path class="st0" d="M412.7,454.9c0-0.9-0.6-1.1-1.7-1.1c-1.1,0-7.8,0.5-9.6,0.5c-1.8,0-9-0.5-10.3-0.5c-1.4,0-1.9,0.2-1.9,1.4  c0,1,1.2,1.2,2.6,1.4c5.5,0.7,7.9,3.5,7.9,9.1v36.3l-43.8-46.5c-1.4-1.4-1.9-1.6-3.1-1.6c-0.8,0-4.9,0.5-5.5,0.5  c-0.7,0-8.3-0.5-9-0.5c-0.9,0-1.4,0.5-1.4,1.4c0,0.9,0.3,1.1,1.6,1.5c3.2,0.5,4.9,1.7,8.6,6.1v40.9c0,9-1.7,12.1-7,13  c-1.6,0.4-1.9,0.6-1.9,1.5c0,0.7,0.3,1.1,1,1.1c1.1,0,6.7-0.4,9.4-0.4c2.8,0,7.6,0.4,9.5,0.4c2.5,0,3.2-0.3,3.2-1.4  c0-1.1-0.5-1.3-2.2-1.5c-5.8-0.8-7.8-3.8-7.8-11.3v-38.3l50.1,52.7c0.3,0.2,0.9,0.4,1.5,0.4c1.1,0,1.4-0.4,1.4-2.3v-51.5  c0-6.1,1.9-9.1,6.6-10C412.4,455.9,412.7,455.7,412.7,454.9 M412.3,406l-2.3-9.1l-5.2,0.2h-21.6c-1,0-1.5,0-1.5,0.7  c0,0.5,0.4,0.7,1.4,0.9c2.7,0.3,3.6,2.2,3.6,6.9v20.2c0,4.1-2.3,4.4-3.9,4.5c-0.7,0.1-0.8,0.3-0.8,0.7c0,0.6,0.4,0.8,1.4,0.8  c1.2,0,6.2-0.2,7.2-0.2c0.9,0,5.7,0.2,6.2,0.2c1,0,1.5-0.4,1.5-1c0-0.4-0.3-0.5-1.3-0.6c-3.1-0.1-4.2-1.6-4.2-5.7v-11.2h5.7  c6.6,0,7,0.6,7.5,3.2c0.2,1.5,0.7,2.2,1.2,2.2c0.6,0,0.8-0.6,0.8-1.3c0-0.7-0.3-2.5-0.3-7.4c0-2.2,0-2.7-0.8-2.7  c-0.5,0-0.7,0.2-0.8,1.3c-0.2,2.5-1,2.8-6.9,2.8h-6.5v-7.6c0-2.4,0.1-3.6,0.2-4.6c1.8-0.1,2.6-0.2,3.8-0.2c9.5,0,12.5,4.3,14.3,7.3  c0.5,0.9,0.7,1.1,1.1,1.1C412.6,407.5,412.4,406.5,412.3,406 M373.5,413.8c0-10-7.4-17.7-18.4-17.7c-11.4,0-18.4,8.3-18.4,19.2  c0,6.1,3.2,17.2,17.9,17.2C366,432.6,373.5,425.1,373.5,413.8 M367.2,415c0,11.5-6.1,16-11.9,16c-7.6,0-12.4-6.8-12.4-17.5  c0-8.1,3-15.2,11.6-15.3C362.1,398,367.2,404.8,367.2,415 M301,274.7c0,0,31,23.3,52.8,23.6c-27.5-6.8-51.7-27.8-51.7-27.8  L301,274.7z M268.8,242.9c0,0-10.3-12.3-16.5-19.5C256.5,237.1,268.8,242.9,268.8,242.9 M255.6,112.4c-1,0-1.7,0.7-1.7,1.5  s0.8,1.5,1.7,1.5c1,0,1.7-0.7,1.7-1.5S256.5,112.4,255.6,112.4 M349.9,279.2c-0.6-34.5-36.7-98.4-86.3-97.7  c4.3-15.6,46.5-28,40.3-54.5c-2.1-9.1-11.5-17-31.4-17.2c-16.7-6.5-25.1-0.2-28.1,3.1c2.8,0.8,4.1,3.2,4.8,1.5  c0.8-1.9,1.4-2.9,5.3-3.6c3.5-0.6,8.6,0.4,11.3,0.3c-1,1.2-3.9,1.9-6.7,2.2c-1,6.1-8.1,3.4-9.1,3.7c-2.7,1-6.6,2.5-4.2,6.9  c10.1,4.6,22.8,2.1,25.9-8.3c0.8,0.5,1.1,1.9,1.2,2.9c10.3-1.6,25.6,3.7,21.6,16.8c-4.2,13.8-24.6,20.6-39.1,31.5  c-26.6,13.6-22.1,28.5-19.1,37c3.3,15.8,11.3,27,14.3,31c3,4,8.2,10.2,13.1,14c-3.2-5.3-21.3-26.7-24.7-44.6  c-2.4-5.4-2.5-21.1,8.4-23.6c-5.1,3.7-6.4,9.8-6.7,13.7c0,0.2,0.1,0.4,0.1,0.6c1.1-2.4,3.2-4.9,7.1-6.6c-4.8,6.5-4.8,11.8-4,16.1  c0.6-2.8,2.3-6.7,7-10.2c-5.4,8.9-3,17.4,2.7,22.3c1.1,0.7,1.8,1.1,1.8,1.1s-5.5-15.5,5.2-22.1c-5.7,11.2-0.1,25,8.9,28.1  c10.8,9.7,29.3,16.5,34.3,17.1C312.3,244.4,340,261.9,349.9,279.2 M271.6,220.6c-9.4-4.2-9.8-13.2-6.7-22.8  C265.2,209.1,266.5,216.3,271.6,220.6 M273.9,201.8c2.3,10.9,3.8,23.8,15.3,29.5C271,228.4,273.3,211.8,273.9,201.8 M283.6,205.2  c5.2,23,15.1,28.9,20.7,32C294,237,285.2,229.5,283.6,205.2 M337.9,258c-19.9-18.8-39.8-19.9-41.4-47.1  C305.8,232.4,328.7,240,337.9,258 M307.7,131.2c0.3,3.6-0.3,6.9-1.4,10c6.5-0.3,17.5,1.3,21,11.8c2.1-4.9,1.8-9.5-1.5-13.4  C322.6,135.6,313.7,132,307.7,131.2 M313.8,170.3c0,0-9.3,24.5,16.6,31.1c-13.2-9.2-10.1-25-3.2-33c6.9-8,12.5-19.3,2-30.7  c5.7,10.2-0.9,21.4-8.2,22.4c-7.9,1-14.3-3.4-14-8.1C300.7,163.7,313.8,170.3,313.8,170.3 M328.1,61.6c1.6,3,1.9,14.7-4.2,17.1  c5.9-0.3,8.6-7.5,7.3-13.1c11.1,7.2,0.7,20.1-9.5,13.9c-13.5-8.2-18.4-12.2-32.3-16.8c5.7-2,19.1-3.1,26.2,1.9  c-3.2-8.9-7.9-10.5-12.6-11.1c2.9-2.9,6-18.8-11.5-23.6c7.5,3.6,7.8,21.8-9.2,22.1c-8.7,0.1-21.9-0.6-32,1.4  c-5.4,1.1-9.1,3.5-11.5,7.4c4.3-3.8,16.7-9.3,25.1,4.3c5.8,10.4,1.8,17.6-2.3,20.8c0.1-0.1,0.1-0.1,0.2-0.2  c-5.7-5.5-10.6-11-10.4-17.8c0.1-3.1,2.1-5.6,7.9-5.8c-7.8-6.4-14.4,1.1-12.8,8.9c-2.2-5.8-0.3-9.5,0.9-11.1c-3.5,0.1-6,6.8-4.7,13  c-2.4-4.7-1.5-8.5-0.6-10.7c-4.7,4-3.7,10.3-2.5,12.6c-1.5,1.2-13.4-1.8-16-5.8c3.3,16.6,37.2,18.5,50.3,37.5  c1.3,0.1,2.2,0.3,3.7,0.4c0-5.9-6.5-12.4-10.9-16.5c-4,0.6-7.1-1.2-8.6-2.7c0.3,0,0.8-0.1,1.4-0.4c2.6,2.4,10.3,0.9,13.5-2.8  c3.6,7.4,17.4,22.5,37.7,18.3c-23.2-7.1-26.2-25.8-37.2-37.8c15.9,4.6,26.9,24.4,41.9,24.8c0.6-4.6,12.5-3.7,18.7-6.6  C340.5,80.4,342.1,66.2,328.1,61.6 M224.7,84.5c-5.5,3.9-4.2,15.2-4.2,15.2s-10.2-2.3-13,6.2c3.7-1.2,12.1-2.6,12.9,6.7  c-1.7,0.1-3,1.4-3,3.1c0,1.7,1.4,3.1,3.1,3.1h0.2c0.4,6.4,0.7,13.1-6.5,15.6c4.4,2.3,8.7,0.5,10.4-2c1.7,2.6,6.1,4.4,10.4,2  c-2.8-1-4.4-2.5-5.4-4.5c-1.9-0.1-3.7,0-5.4,0c-0.5-0.8,0.1-1.1,0.1-1.3c6.7-1.1,14.9-0.3,19.2-1.4c0,0-0.5-1.2-1.1-2.6  c-0.6-1.2-1.3-4,3.2-8.2c-4.7-6.6-8.9-1.4-9.3,2.2c-0.6,1.5-4.1,3.8-7.9,5.1c0-1.6,0.1-3.3,0.2-4.9h0.2c1.7,0,3.1-1.4,3.1-3.1  c0-1.7-1.3-3.1-3-3.1c0.8-9.2,9.2-7.9,12.9-6.7c-2.7-8.6-13-6.2-13-6.2S230.2,88.4,224.7,84.5 M275.6,137.3c2.3-0.4,5.3-0.8,8.8-0.8  c-3.3,0.8-7.3,2.1-10,3.1c-0.4,0.7-0.8,1.3-1.2,2c2.3-0.5,5.8-1.1,9.3-0.9c-3.6,0.7-8,2.1-10.9,3c-0.6,0.7-1.2,1.4-1.8,2.1  c2-0.5,5.1-1.1,8.3-0.9c-4.8,1.1-10.5,3.5-12.2,4.3c-3.2,2.3-6.9,4.2-11.2,5.3c7.6-1,17.7-4.9,28.2-8.3c0.4-0.3,0.8-0.6,1.1-0.9  c5.8-5,8.3-10.2,8.2-14.4c-5.3,0.7-10.6,2.1-15.7,4.6C276.2,136.1,275.9,136.7,275.6,137.3 M196.7,119c-1.2-1-3.4-3.1-4.9-3.9  c12.7,12.2,14.3,25.7,39.6,37.5c-13.1-0.8-20.8-7.8-25.4-11.8c1.3,5.3,2,10.5,5.5,16.6c-9-6-12.8-17.3-16.3-23.9  c-3,10-1.8,16.6,0.5,21.6c-2.2-1.5-4.2-3.8-5.9-6.6c0.4,6.8,7.6,10.9,12.7,13.3c-6.3-9.2-6.3-17.9-6.1-20.8  c6.6,14,12.5,30.3,37,25.6c-11.3-1.7-19.1-11.1-20.6-16.7c36.4,22.3,67.7-10.3,62.6-29c-0.8,9.2-5.3,14.3-11,17.8  c-9.6,5.7-32.2,10.2-46.3,1.4C210.3,135.2,204.8,126.2,196.7,119 M194.2,109.3c0.6-2.5-1-5.9-4.5-7.1c-1.5-0.5-3.3-1-5.3-1.4  c0,0-0.9-0.2-1.1-0.2c3.5,3.5,3,7.9,6.1,11.1C192.1,112,193.8,111.2,194.2,109.3 M193.9,100.6c0-2.6,0-40.4,0-40.4l-2.2,1.1  l-3.6-19.5c0.7-0.2,1.2-0.9,1.2-1.7c0-1-0.8-1.8-1.7-1.8c-1,0-1.7,0.8-1.7,1.8c0,0.8,0.6,1.5,1.3,1.7l-3.6,19.6l-2.2-1.2l0,13.2  l-1.2,0c-1.8-4.1-5.9-11.8-5.9-11.8s-0.4,1.8-1.8,2.8c-0.8,0.5-3.2-0.8-4.9-1.6c0.4,0.8,3,7.5,5,10.6l-8.5,0  c-0.5-1.7,0.2-5.4,0.4-7.5c1.4-0.9,2.2-1.9,2.2-1.9s0.1-7.1-4.8-9.6c-0.3,3.6,0,6.5,0.5,8.6c-0.2,5.3-0.6,8.4-1.5,10.5l-2,0  c-0.4-0.6-0.8-1.2-0.9-2c0.1-1.9,0.3-4,0.4-5.7c0.9-0.5,2.3-1.4,2.9-2.3c-0.4-1.9-0.7-4-0.9-5.9c-2-0.8-2.6-1.2-4.5-2.4  c0.1,3.5,0.5,6.1,0.8,7.8c-0.7,4.3-1.3,8.4-2.8,10.5l-7.3,0l0-13.2l-2.2,1.2l-3.6-19.6c0.8-0.2,1.3-0.9,1.3-1.7c0-1-0.8-1.8-1.7-1.8  c-1,0-1.7,0.8-1.7,1.8c0,0.8,0.5,1.4,1.2,1.7l-3.6,19.5l-2.2-1.1c0,0,0,37.7,0,40.4c1-0.7,2.4-1.4,4.2-1.9c0-1.2,0.1-8.7,0-16.3h4  c0,7,0,13.8,0,15.1c3.1-0.8,6.6-1.4,10-1.8c0-1.5,0-3.8,0.1-6.4c0-2.3,3.7-4.1,3.8-4.1c0,0,0,0,0,0s3.7,1.8,3.8,4.1  c0,2.1,0.1,4.3,0.1,5.7c1.4-0.1,3.1-0.1,4.3-0.1v0c0.9,0,2.3,0,3.6,0.1c0-1.4,0.1-3.6,0.1-5.7c0-2.3,3.8-4.1,3.8-4.1s0,0,0,0  c0,0,3.7,1.8,3.8,4.1c0.1,2.6,0.1,4.9,0.1,6.4c3.3,0.4,6.9,1,10,1.8c0-1.4,0-8.2,0-15.1h4c0,7.6,0,15.1,0,16.3  C191.5,99.3,192.9,99.9,193.9,100.6 M142.4,71.3h-4c0-4.4,0-7.5,0-7.5l2-3.5l2,3.5C142.4,63.8,142.4,67,142.4,71.3 M142.4,80.2h-4  c0-2.2,0-4.4,0-6.4h4C142.4,75.8,142.4,78,142.4,80.2 M181.5,82.4l-17.7,0l-17.2,0v-2.2l17.6,0l17.3,0V82.4z M185.7,80.1  c0-2.2,0-4.4,0-6.4h4c0,2,0,4.2,0,6.4H185.7z M189.7,63.8c0,0,0,3.1,0,7.5h-4c0-4.3,0-7.5,0-7.5l2-3.5L189.7,63.8z M179.3,63.4  c-0.8-2-1.6-3.8-1.6-3.8s-12.4-11-13.5-17.3c4.7,5,10.6,10.7,13.3,12.8c-3.3-10.1-7.2-17.8-13.1-21.3c-0.4-0.4-1.8-1.2-2.1-2.5  c-0.2-1,0.3-6.8-1.8-8.8c-0.7-0.7-2.7-1.4-4.3-1.4c-1.5,0-3.6,0.1-4.7,1.1c-2.3,2.4-2.1,7-1.9,9.9C144,42,150,50.5,160.5,55.3  c0-1.8,0.2-2.5,0.3-3.8c-2.4-2-5.6-10.4-1-14.7C158.3,46.1,170.3,58,179.3,63.4 M155.2,25.8c-0.3,1-2.1,2.6-2.8,0.1  c0-0.2-0.9-0.3-0.9-0.6C152.6,24.1,154.3,24.8,155.2,25.8 M158.1,28c0,0-1,1.4-1.7,2.9c-0.8-1.5-2-2.7-2-2.7s1-1.8,1.9-1.8  C157.1,26.5,158.1,28,158.1,28 M160.9,25.3c0,0.2-0.8,0.4-0.9,0.6c-0.7,2.6-2.5,1-2.8-0.1C158.2,24.7,159.8,24.1,160.9,25.3   M133.8,109.3c0.5,2,2.4,2.8,5.2,2.2c2.3-0.4,4.4-0.8,6.3-1.2c-2.5-1.7-4.4-5.5-8.5-7.4C134.4,104.5,133.3,107.3,133.8,109.3   M136.3,115.1c-1.5,0.8-3.8,2.8-4.9,3.9c-8.1,7.3-13.6,16.3-21.3,21.1c-14.2,8.8-36.8,4.3-46.3-1.4c-5.8-3.5-10.2-8.6-11-17.8  c-5.1,18.7,26.2,51.3,62.6,29c-1.4,5.6-9.3,15-20.6,16.7c24.5,4.7,30.3-11.7,37-25.6c0.2,2.9,0.2,11.7-6.1,20.8  c5-2.4,12.3-6.5,12.7-13.3c-1.7,2.8-3.7,5-5.9,6.6c2.3-5,3.5-11.6,0.5-21.6c-3.5,6.5-7.3,17.8-16.3,23.9c3.5-6,4.3-11.3,5.5-16.6  c-4.5,4-12.3,11-25.4,11.8C122,140.8,123.6,127.3,136.3,115.1 M120.5,105.9c-2.7-8.6-13-6.2-13-6.2s1.3-11.3-4.2-15.2  c-5.5,3.9-4.2,15.2-4.2,15.2s-10.2-2.3-13,6.2c3.7-1.2,12.1-2.6,12.9,6.7c-1.7,0.1-3,1.4-3,3.1c0,1.7,1.4,3.1,3.1,3.1h0.2  c0.1,1.6,0.2,3.3,0.2,4.9c-3.8-1.3-7.4-3.6-7.9-5.1c-0.4-3.5-4.5-8.8-9.3-2.2c4.5,4.1,3.8,7,3.2,8.2c-0.7,1.4-1.1,2.6-1.1,2.6  c4.2,1,12.4,0.3,19.2,1.4c-0.1,0.2,0.6,0.5,0.1,1.3c-1.7,0-3.5-0.1-5.4,0c-1,1.9-2.6,3.5-5.4,4.5c4.4,2.3,8.7,0.5,10.4-2  c1.7,2.6,6.1,4.4,10.4,2c-7.1-2.5-6.9-9.1-6.5-15.6h0.2c1.7,0,3.1-1.4,3.1-3.1c0-1.7-1.3-3.1-3-3.1  C108.4,103.3,116.8,104.7,120.5,105.9 M104.3,68.9c-2.6,4-14.5,7-16,5.8c1.2-2.3,2.2-8.6-2.5-12.6c1,2.2,2.4,5.6-0.6,10.7  c1.4-6.3-1.2-12.9-4.7-13c1.2,1.6,3.3,5.1,0.9,11.1c1.6-7.8-4.9-15.3-12.8-8.9c5.8,0.2,7.9,2.7,7.9,5.8c0.2,6.8-4.7,12.4-10.4,17.8  c0.1,0.1,0.1,0.1,0.2,0.2c-4.1-3.3-8.1-10.5-2.3-20.8c8.4-13.6,20.9-8,25.1-4.3c-2.4-3.9-6.1-6.3-11.5-7.4c-10.2-2-23.3-1.2-32-1.4  C28.7,51.7,29,33.5,36.5,29.9C19,34.8,22.1,50.7,25,53.5c-4.8,0.6-9.5,2.2-12.6,11.1c7.1-5,20.5-3.9,26.2-1.9  c-13.9,4.6-18.8,8.6-32.3,16.8c-10.1,6.1-20.5-6.7-9.5-13.9c-1.3,5.6,1.4,12.8,7.3,13.1c-6-2.4-5.7-14.1-4.2-17.1  c-14.1,4.6-12.5,18.8-6.3,21.7c6.2,2.9,18.1,2,18.7,6.6c15-0.5,26-20.2,41.9-24.8c-10.9,12.1-14,30.7-37.2,37.8  c20.3,4.2,34.1-10.9,37.7-18.3c3.2,3.7,10.9,5.2,13.5,2.8c0.6,0.2,1.1,0.4,1.4,0.4c-1.5,1.5-4.6,3.2-8.6,2.7  c-4.3,4.1-10.8,10.6-10.9,16.5c1.5-0.2,2.4-0.3,3.7-0.4C67,87.4,101,85.5,104.3,68.9 M21.1,151.9c0.3,4.7-6.1,9.1-14,8.1  c-7.3-0.9-13.9-12.2-8.2-22.4c-10.6,11.4-4.9,22.7,2,30.7c6.9,8,10.1,23.8-3.2,33c25.9-6.6,16.6-31.1,16.6-31.1  S27.3,163.7,21.1,151.9 M21.8,141.3c-1.1-3.1-1.7-6.5-1.4-10c-5.9,0.8-14.8,4.3-18.1,8.3c-3.3,4-3.6,8.6-1.5,13.5  C4.2,142.6,15.3,141,21.8,141.3 M74.2,113.9c0-0.9-0.8-1.5-1.7-1.5c-1,0-1.7,0.7-1.7,1.5c0,0.9,0.8,1.5,1.7,1.5  C73.4,115.5,74.2,114.8,74.2,113.9 M62.3,149.2c-1.7-0.7-7.4-3.1-12.2-4.3c3.2-0.2,6.3,0.4,8.3,0.9c-0.6-0.7-1.3-1.4-1.8-2.1  c-2.9-1-7.3-2.3-10.9-3.1c3.4-0.3,6.9,0.3,9.3,0.9c-0.4-0.6-0.8-1.3-1.2-2c-2.8-1-6.7-2.3-10-3.1c3.5,0,6.5,0.4,8.8,0.8  c-0.3-0.6-0.6-1.2-0.8-1.9c-5-2.4-10.4-3.9-15.7-4.6c-0.1,4.3,2.4,9.4,8.2,14.4c0.3,0.3,0.7,0.6,1.1,0.9c10.4,3.4,20.6,7.3,28.2,8.3  C69.2,153.4,65.4,151.6,62.3,149.2 M75.7,223.3c-6.1,7.3-16.5,19.5-16.5,19.5S71.5,237.1,75.7,223.3 M-21.9,279.2  c9.9-17.3,37.7-34.8,45.9-38.7c5-0.6,23.5-7.3,34.3-17.1c9-3,14.7-16.8,8.9-28c10.6,6.6,5.2,22.1,5.2,22.1s0.7-0.3,1.8-1.1  c5.7-4.9,8.1-13.3,2.7-22.3c4.6,3.5,6.4,7.4,7,10.2c0.8-4.3,0.7-9.6-4-16.1c3.9,1.7,6,4.2,7.1,6.6c0-0.2,0.1-0.4,0.1-0.6  c-0.2-3.9-1.5-10.1-6.7-13.7c10.9,2.5,10.8,18.2,8.4,23.6c-3.4,18-21.5,39.4-24.7,44.6c4.9-3.8,10.1-10,13.1-14c3-4,11-15.2,14.3-31  c3-8.5,7.5-23.5-19.1-37c-14.5-10.9-34.9-17.7-39.1-31.5c-4-13,11.3-18.4,21.6-16.8c0.1-1,0.4-2.4,1.2-2.9  c3.1,10.4,15.8,12.9,25.9,8.3c2.5-4.4-1.5-5.9-4.2-6.9c-1-0.4-8.1,2.4-9.1-3.7c-2.8-0.3-5.7-1-6.7-2.2c2.6,0.1,7.8-0.9,11.3-0.3  c3.9,0.7,4.5,1.7,5.3,3.6c0.7,1.7,2-0.8,4.8-1.5c-3-3.3-11.3-9.6-28-3.1c-19.9,0.2-29.3,8.2-31.4,17.2c-6.1,26.5,36.1,39,40.3,54.5  C14.8,180.8-21.3,244.7-21.9,279.2 M56.5,220.6c5-4.3,6.3-11.5,6.7-22.8C66.3,207.4,65.9,216.4,56.5,220.6 M38.9,231.3  c11.5-5.7,13-18.6,15.3-29.5C54.8,211.8,57.1,228.5,38.9,231.3 M23.8,237.2c5.5-3.1,15.5-9,20.7-32C42.9,229.5,34.1,237,23.8,237.2   M31.5,210.9c-1.5,27.2-21.4,28.4-41.4,47.1C-0.7,240.1,22.3,232.4,31.5,210.9 M26,270.6c0,0-24.2,21-51.7,27.8  c19.3-0.3,45.8-18.6,51.6-22.8C26.9,273.3,26,270.6,26,270.6 M-2.5,422.7L-26,397.8c-0.7-0.7-1-0.8-1.6-0.8c-0.4,0-2.6,0.2-3,0.2  c-0.4,0-4.4-0.2-4.8-0.2c-0.5,0-0.7,0.2-0.7,0.7c0,0.5,0.2,0.6,0.9,0.8c1.7,0.2,2.6,0.9,4.6,3.3v21.9c0,4.8-0.9,6.5-3.8,7  c-0.8,0.2-1,0.3-1,0.8c0,0.4,0.2,0.6,0.5,0.6c0.6,0,3.6-0.2,5-0.2c1.5,0,4.1,0.2,5.1,0.2c1.3,0,1.7-0.2,1.7-0.7  c0-0.6-0.2-0.7-1.2-0.8c-3.1-0.4-4.2-2.1-4.2-6.1v-20.5l26.8,28.2c0.2,0.1,0.5,0.2,0.8,0.2c0.6,0,0.7-0.2,0.7-1.2v-27.5  c0-3.3,1-4.9,3.5-5.3c0.8-0.2,1-0.3,1-0.7c0-0.5-0.3-0.6-0.9-0.6c-0.6,0-4.2,0.2-5.2,0.2c-1,0-4.8-0.2-5.5-0.2c-0.7,0-1,0.1-1,0.7  c0,0.6,0.7,0.7,1.4,0.7c2.9,0.4,4.3,1.9,4.3,4.9V422.7z M-44,397.6c0-0.5-0.3-0.7-1-0.7c-0.7,0-2.5,0.2-4.3,0.2  c-1.8,0-3.9-0.2-4.6-0.2c-0.7,0-1,0.2-1,0.7c0,0.6,0.3,0.7,1.3,1c2.3,0.5,3.1,1.6,3.1,4v17.3c0,6.6-3.5,9.6-11.1,9.6  c-7.8,0-11.4-3.3-11.4-10.6v-16.7c0-2.4,0.9-3.5,3.3-3.8c1-0.2,1.3-0.4,1.3-0.8c0-0.8-0.9-0.8-1.8-0.8c-1.3,0-3.6,0.2-5.8,0.2  c-1.9,0-4.7-0.2-5.9-0.2c-1.3,0-2.1,0-2.1,0.7c0,0.6,0.3,0.8,1.5,1c2.4,0.4,3.4,1.5,3.4,3.5V421c0,7.4,5.5,11.5,15.6,11.5  c10.1,0,15.5-4.6,15.5-12.9v-17c0-2.8,1-3.3,2.2-3.7C-44.4,398.5-44,398.2-44,397.6 M-83.8,518c0,1,0.7,1.2,3.2,1.2l25.3-0.5  l26.9,0.5c1.2-5.6,2.7-9.3,5-14.7c1-2.4,1.6-4,1.6-4.6s-0.4-1.3-1-1.3c-0.9,0-1.4,0.5-2.5,2c-9.6,14.8-23.5,14.8-29.5,14.8  c-6.6,0-8.3-1.5-8.3-7.5v-44.8c0-5.8,3.4-6.2,6-6.5c2.3-0.1,2.9-0.7,2.9-1.7c0-1.4-1-1.4-2.1-1.4c-1.4,0-8.8,0.5-13.4,0.5  c-1.8,0-10.2-0.5-11.4-0.5c-1.4,0-2.3,0.6-2.3,1.5c0,1.1,0.7,1.5,3.3,1.7c5,0.4,6,1.8,6,7.2v35.9c0,12.6,0,15.1-7.1,16.4  C-82.9,516.8-83.8,516.9-83.8,518 M13.8,519.2c2.4,0,4.2,0.1,4.2-1.5c0-1-0.6-1.4-2.7-1.8c-5-0.9-6.6-3.2-6.6-9.3v-41  c0-5,1.9-7.8,6.5-9.2c1.6-0.5,1.9-0.8,1.9-1.6c0-1.1-1.4-1.1-3.1-1.1c-1.1,0-7,0.5-11.1,0.5c-3.7,0-12.1-0.5-13.1-0.5  c-1.7,0-2.3,0.3-2.3,1.3c0,1.1,0.8,1.2,2.3,1.5c5.4,0.7,7.9,3.4,7.9,8.7v41.6c0,6.2-1.9,8.8-7,9.8c-1.7,0.3-2.3,0.7-2.3,1.2  c0,1.4,1.1,1.5,3.1,1.5c2.2,0,8.4-0.5,12-0.5C7.2,518.8,11.3,519.2,13.8,519.2 M43.2,518.8c2.8,0,7.6,0.5,9.5,0.5  c2.5,0,3.2-0.3,3.2-1.4c0-1.1-0.5-1.3-2.1-1.5C48,515.6,46,512.5,46,505v-38.3L96,519.4c0.3,0.2,0.9,0.4,1.5,0.4  c1.1,0,1.4-0.4,1.4-2.3v-51.5c0-6.1,1.9-9.1,6.6-10c1.6-0.3,1.9-0.6,1.9-1.4c0-0.9-0.6-1.1-1.7-1.1c-1.1,0-7.8,0.5-9.6,0.5  c-1.8,0-8.9-0.5-10.3-0.5c-1.4,0-1.9,0.2-1.9,1.4c0,1,1.2,1.2,2.6,1.4c5.4,0.7,7.9,3.5,7.9,9.1v36.3l-43.8-46.5  c-1.4-1.4-1.9-1.6-3.1-1.6c-0.8,0-4.9,0.5-5.6,0.5c-0.7,0-8.3-0.5-8.9-0.5c-0.9,0-1.4,0.5-1.4,1.4c0,0.9,0.3,1.1,1.6,1.5  c3.2,0.5,4.9,1.7,8.6,6.1v40.9c0,9-1.7,12.1-7,13c-1.6,0.3-1.9,0.6-1.9,1.5c0,0.7,0.3,1.1,1,1.1C35,519.2,40.5,518.8,43.2,518.8   M116.9,485.5c0,21.4,13,34.8,33.8,34.8c16.6,0,25.8-11.1,25.8-12.4c0-0.6-0.2-1-0.7-1c-0.4,0-0.8,0.2-1.4,0.8  c-6,5.4-14.1,8.7-21.4,8.7c-14.9,0-24.6-12.2-24.6-31.4c0-18.6,7.8-29.8,20.7-29.8c3.5,0,18.5,2,23.2,20.2c0.6,2.4,1,3.2,1.9,3.2  c0.6,0,0.8-0.7,0.8-1.7c0-0.7-0.2-2.8-0.3-3.7c-0.5-3.6-0.6-8.7-0.6-12.8c0-5.2-0.4-6.2-1.3-6.2c-0.6,0-1,0.2-1.9,1.1  c-1,0.9-1.5,1.2-2.1,1.2c-0.3,0-1.5-0.3-2.8-0.9c-6-2.3-12.4-3.6-17.7-3.6C129.6,452,116.9,465.6,116.9,485.5 M176.4,431.9  c0.9,0,5.8,0.4,6.8,0.4c7.2,0,11.7-3.8,11.7-10c0-5.5-2.9-7.6-10.7-11.5c-4.5-2.3-7.7-3.9-7.7-7.6c0-2.7,2.2-4.7,5.4-4.7  c4.4,0,7.9,3.6,9.6,9.8c0.4,1.5,0.7,2,1.3,2c0.4,0,0.6-0.4,0.6-1.1c0-0.4-0.1-0.8-0.2-1.8l-0.1-1c-0.2-1.6-0.5-4.4-0.5-7.3  c0.1-2.4-0.3-2.5-0.7-2.5c-0.2,0-0.4,0.1-0.6,0.4c-0.4,0.6-0.8,0.8-1.6,0.8c-0.3,0-1.1-0.1-2.4-0.4c-2.6-0.5-4.2-0.7-5.5-0.7  c-5.3,0-9.6,3.9-9.6,8.9c0,6.2,5.3,8.8,9.8,11c4.1,2,8.5,4.2,8.5,8.4c0,3.4-2.1,5.3-5.8,5.3c-2,0-8.8-0.5-11.4-9.8  c-0.4-1.6-0.7-2.1-1.3-2.1c-0.4,0-0.7,0.3-0.7,0.8c0,0.6,0.3,2,0.5,2.7c0.8,3.9,1.2,6.4,1.2,9.1c0,1.1,0.2,1.4,0.7,1.4  C174.5,432.3,174.7,431.9,176.4,431.9 M222.7,521c21.2,0,35.2-13.9,35.2-35.1c0-18.7-13.8-33-34.3-33c-21.4,0-34.4,15.4-34.4,35.9  C189.2,500.2,195.2,521,222.7,521 M223.8,517.9c-14.2,0-23.1-12.7-23.1-32.8c0-15.2,5.6-28.3,21.7-28.7c14.2,0,23.7,12.7,23.7,31.6  C246.1,509.6,234.7,517.9,223.8,517.9 M322.2,519.2c1.3-5.6,2.7-9.3,5-14.7c1-2.4,1.6-4,1.6-4.6s-0.4-1.3-1-1.3  c-0.9,0-1.4,0.5-2.5,2c-9.6,14.8-23.4,14.8-29.4,14.8c-6.6,0-8.3-1.5-8.3-7.5v-44.8c0-5.8,3.4-6.2,6-6.5c2.3-0.1,2.9-0.7,2.9-1.7  c0-1.4-1-1.4-2.2-1.4c-1.4,0-8.8,0.5-13.4,0.5c-1.8,0-10.2-0.5-11.4-0.5c-1.4,0-2.3,0.6-2.3,1.5c0,1.1,0.7,1.5,3.3,1.7  c5,0.4,6,1.8,6,7.2v35.9c0,12.6,0,15.1-7.1,16.4c-1.6,0.3-2.5,0.5-2.5,1.5c0,1,0.7,1.2,3.2,1.2l25.2-0.5L322.2,519.2z M289.3,415.7  v10.9c0,2.5-0.6,3.3-3,3.7c-1.2,0.2-1.6,0.4-1.6,1c0,0.7,0.7,0.7,1.8,0.7c1.1,0,4.8-0.2,6.1-0.2c1.3,0,5.2,0.2,6.1,0.2  c1.1,0,1.5-0.2,1.5-0.7c0-0.6-0.4-0.9-1.6-1c-2.5-0.4-3.3-1.4-3.3-3.9v-11.8l8.1-12.4c1.4-2.2,2.6-3.2,4.5-3.7  c0.8-0.2,1.1-0.5,1.1-0.9c0-0.4-0.5-0.5-1.4-0.5c-0.7,0-2.9,0.2-4.2,0.2c-1.3,0-3-0.2-3.5-0.2c-1,0-1.6,0.3-1.6,0.8  c0,0.4,0.2,0.6,1,0.7c1.4,0.2,2.1,0.7,2.1,1.8c0,0.7-0.3,1.6-0.9,2.4l-6.4,9.9l-7.5-10.8c-0.3-0.4-0.5-1.1-0.5-1.6  c0-0.9,0.5-1.4,1.8-1.6c0.8-0.2,1-0.4,1-0.7c0-0.5-0.5-0.8-1.3-0.8c-0.9,0-3.5,0.2-5.2,0.2c-1.8,0-4.2-0.2-5.5-0.2  c-1.1,0-2.1,0-2.1,0.8c0,0.4,0.2,0.5,0.8,0.7c1.5,0.3,2.4,1,3.4,2.5L289.3,415.7z M245.5,399.3v27.2c0,2-1.1,3.2-3.6,3.7  c-1.1,0.2-1.5,0.4-1.5,1c0,0.5,0.6,0.8,1.6,0.8c0.8,0,4.6-0.2,6.4-0.2c1.8,0,4.2,0.2,5.7,0.2c1.2,0,2.2-0.1,2.2-0.8  c0-0.7-0.6-0.9-1.5-1c-2.4-0.5-3.4-1.7-3.4-3.9v-27.1h2.5c4.2,0,7.6,2.8,10,6.3c0.9,1.4,1.3,1.8,1.8,1.8c0.5,0,0.5-0.5,0.4-0.9  l-2.2-9.3H233l-1.9,8.4c-0.1,0.5-0.2,1-0.2,1.1c0,0.5,0.2,0.7,0.6,0.7c0.3,0,0.6-0.3,1.1-1.2c4.4-7,9.3-7,11.2-7H245.5z   M211.3,403.1v22.3c0,3.3-1,4.7-3.8,5.2c-0.9,0.2-1.2,0.4-1.2,0.7c0,0.7,0.6,0.8,1.6,0.8c1.1,0,4.5-0.2,6.4-0.2c2,0,4.2,0.2,5.5,0.2  c1.3,0,2.2,0.1,2.2-0.8c0-0.6-0.3-0.7-1.5-1c-2.7-0.5-3.5-1.7-3.5-5v-22c0-2.7,1-4.2,3.5-4.9c0.8-0.2,1-0.4,1-0.8  c0-0.6-0.7-0.6-1.6-0.6c-0.6,0-3.8,0.2-5.9,0.2c-2,0-6.5-0.2-7-0.2c-0.9,0-1.2,0.2-1.2,0.7c0,0.6,0.4,0.7,1.2,0.8  C210,398.8,211.3,400.2,211.3,403.1 M133.7,402.3v23.1c0,3.2-1.1,4.7-3.6,5.2c-1,0.2-1.2,0.4-1.2,0.8c0,0.6,0.4,0.6,1.5,0.6  c1.4,0,5.1-0.2,6.4-0.2c1.6,0,6.2,0.2,7.2,0.2c0.5,0,0.8-0.1,0.8-0.6c0-0.4-0.3-0.6-1.3-0.8c-2.8-0.6-3.9-2.1-3.9-5.3v-8.9  c3.4,0,4.2,0.2,6.6,3.8l4.8,7c2.7,4,3.6,4.9,5.3,4.9c0.7,0,2.1-0.2,2.9-0.2c0.7,0,2.5,0.2,3.3,0.2c0.7,0,2.2,0,2.2-0.8  c0-0.4-0.2-0.6-1-0.6c-2.8-0.1-4.4-1.2-9.2-8.4l-0.7-1.1c-1.5-2.2-2.3-3.3-3.8-5.1c1.9-1.5,5.5-4.2,5.5-9.5c0-5.9-4.5-9.5-11.5-9.5  c-0.6,0-5.7,0.2-7.3,0.2c-1.6,0-5.3-0.2-6.5-0.2c-0.9,0-1.6,0-1.6,0.5c0,0.6,0.4,0.8,1.6,0.9C132.7,398.7,133.7,399.8,133.7,402.3   M139.5,400.8c0-1.6,0.8-2.3,3-2.3c4.2,0,6.9,3.4,6.9,8.7c0,5.3-2.6,7.8-7.9,7.8c-0.5,0-1.1-0.1-2-0.1V400.8z M94.5,426.9v-13.2h8.4  c4,0,4.9,0.5,5.5,3.3c0.3,1.2,0.5,1.5,1.1,1.5c0.4,0,0.7-0.4,0.7-1.1c0-0.8-0.2-4.2-0.2-4.9c0-0.6,0.2-3.6,0.2-3.9  c0-0.9-0.4-1.5-0.8-1.5c-0.6,0-0.8,0.4-1.1,1.7c-0.5,2.3-1.3,2.9-3.8,2.9h-10v-12.7h6c5.2,0,9.8,2.9,12.4,7.3c0.4,0.5,0.6,0.7,1,0.7  c0.4,0,0.7-0.2,0.7-0.7c0-0.2,0-0.4-0.1-0.7l-2.4-8.9l-5.5,0.2H84.8c-0.9,0-1.1,0.4-1.1,0.7c0,0.6,0.3,0.8,1.5,1  c2.8,0.5,3.4,1.3,3.4,4.1v23.4c0,2.8-0.7,3.8-3,4.1c-1.4,0.2-1.9,0.4-1.9,0.9c0,0.3,0,0.7,1.5,0.7l13.5-0.2l14.9,0.2l3.3-9.3  c0.2-0.5,0.2-0.9,0.2-1.2c0-0.5-0.2-0.7-0.7-0.7c-0.5,0-1,0.7-1.6,1.6c-3.3,5-8.5,7.6-15,7.6C96,430,94.5,429.1,94.5,426.9   M69.3,400.5c0,0.8-0.4,1.9-1.6,4.4l-9,19.3l-10.1-20.9c-0.7-1.3-1-2.3-1-3c0-1.6,1.5-1.9,2.4-2c1-0.2,1.2-0.4,1.2-0.8  c0-0.7-0.6-0.7-1.1-0.7c-1.4,0-4.2,0.2-6.1,0.2c-2,0-5.7-0.2-6.2-0.2c-0.8,0-1.4,0.2-1.4,0.7c0,0.5,0.2,0.7,1.2,0.9  c1.9,0.4,2.9,1.2,3.8,3l14.1,29.3c0.6,1.2,0.8,1.8,1.3,1.8c0.5,0,0.6-0.5,0.8-1l13.1-28.2c1.7-3.6,2.4-4.4,4.8-4.9  c1-0.2,1.3-0.4,1.3-1c0-0.4-0.3-0.5-1-0.5c-0.7,0-2.8,0.2-4.1,0.2c-1.4,0-3.9-0.2-4.4-0.2c-0.5,0-1,0.2-1,0.7c0,0.4,0.2,0.6,1,0.9  C68.8,398.9,69.3,399.4,69.3,400.5 M18.2,403.1v22.3c0,3.3-1,4.7-3.8,5.2c-0.9,0.2-1.2,0.4-1.2,0.7c0,0.7,0.6,0.8,1.6,0.8  c1.2,0,4.5-0.2,6.4-0.2c2,0,4.2,0.2,5.5,0.2c1.3,0,2.2,0.1,2.2-0.8c0-0.6-0.3-0.7-1.5-1c-2.7-0.5-3.5-1.7-3.5-5v-22  c0-2.7,1-4.2,3.4-4.9c0.9-0.2,1-0.4,1-0.8c0-0.6-0.7-0.6-1.6-0.6c-0.6,0-3.8,0.2-5.9,0.2c-2,0-6.5-0.2-7-0.2c-0.9,0-1.2,0.2-1.2,0.7  c0,0.6,0.4,0.7,1.2,0.8C16.8,398.8,18.2,400.2,18.2,403.1 M221.9,176.9c0,0-27.9,0-30,0c-1.4,1-2.7,2.3-3.9,4.3l-1.1,1.9l-1.6-1.5  c-1.3-1.3-2.8-1.7-4.3-1.3c-1.8,0.5-3.4,2.3-3.9,4.2c-0.3,1.1-0.3,2.8,1.4,4.3l1.3,1.2l-1.3,1.3c-2.2,2.1-4.9,4.3-7.7,5.9v38.1  l44.3,32.2c4.1-8.3,6.7-16.5,6.7-23.7c0-3,0-5.9,0-8.6c-0.9-3.1-2.2-5.7-4.2-6.6c1.8-1.3,3.3-1.6,4.2-1.7c0-13.7,0-24.2,0-35.3  C221.9,187,221.9,176.9,221.9,176.9 M186.4,238c1.2-1.8,2.6-3.9,3.9-5.8h10.8c1.3,1.9,2.7,4,3.9,5.8C199.9,238,191.6,238,186.4,238   M190.4,205.7c-1.3-1.8-2.6-3.9-3.8-5.7h18.6c-1.2,1.8-2.6,3.9-3.8,5.7H190.4z M201.1,230.1h-10.5v-22.3h10.5V230.1z M214.6,194.3  c0,0,0,38.9,0,39.5c-0.4,0-0.7,0-1.2,0c-1.5,0.7-3.1,2.4-4.1,4.2c-0.3,0-0.8,0-1.3,0c-1.4-2.1-3.2-4.7-4.7-7v-24  c1.5-2.3,3.3-4.9,4.7-7h1.3l0,34.9c0.7-0.9,2-2,3.3-2.8l0-35.6c-2,0-27.9,0-28.4,0c-1.3-0.2-3.3,0-3.4,1.5c-0.1,2.3,3.1,2,3.1,2  c1.4,2,3.1,4.7,4.7,7v23.9c-1.6,2.4-3.4,5.1-4.8,7.2c-1.7,1-4.5,0.1-5-3.1c0,0,0,0,0,0c0-0.1,0-0.3-0.1-0.4c0-0.2,0-0.4,0-0.6v-5  c0.7,0.1,2.4,0.3,3.5-0.1c0.7-0.3,1.1-0.9,1-1.5c-2.9-0.1-4-0.7-4.5-1.1v-16.1c0.8,0.1,2.1,0.2,3-0.2c0.7-0.3,1.1-0.9,1-1.5  c-2.2-0.1-3.5-0.5-4.1-0.8v-9.9c0-3.2,3.7-3.8,5.8-3.4C188.5,194.2,214.6,194.3,214.6,194.3 M163.1,199.8l0.1,0.1l0.1,0  C163.3,199.8,163.2,199.8,163.1,199.8 M163.4,199.7l0.1,0.1l0.1,0C163.5,199.7,163.4,199.7,163.4,199.7 M164.5,199.7L164.5,199.7  l0.2,0C164.6,199.6,164.6,199.6,164.5,199.7 M164.7,199.8L164.7,199.8l0.2,0C164.9,199.8,164.8,199.8,164.7,199.8 M208.3,279.2  L164,247.1l-44.3,32.1c12.5,19.2,31.1,37,44.3,42.9C177.2,316.3,195.8,298.4,208.3,279.2 M152.9,307.3c2.1-4,3.2-6.5,3.9-11.6h2.8  c-0.1,4.5-0.4,8.5-1.8,12.1c0,0-0.7,1.4,0.3,1.9c0.5,0.2,1.1-0.2,1.6-1.3c1.2-2.6,1.6-7.6,1.8-12.7h1.8c0,2.2,0,4.3,0,6.2  c0,4.3,0,7.7,0,9.2c0,0,0.1,0.6,0.9,0.6c0.9,0,0.9-0.6,0.9-0.6c0-1.5-0.1-4.8-0.1-9.1c0-1.9,0-4.1,0-6.4h1.8  c0.2,5.1,0.6,10.1,1.8,12.7c0.5,1.1,1.1,1.5,1.6,1.3c1-0.4,0.3-1.9,0.3-1.9c-1.4-3.6-1.7-7.7-1.8-12.1h2.7c0.7,5.2,1.8,7.7,3.9,11.6  c0.4,0.9-0.6,2.7-2.4,1.6c0,2.3-2.9,3.9-5.1,2.1c-0.5,3-3.6,2.5-3.6,2.5v0c0,0,0,0,0,0s-3.1,0.5-3.6-2.5c-2.2,1.7-5.1,0.2-5.1-2.1  C153.5,309.9,152.5,308.1,152.9,307.3 M173.5,292.2c0,0.8-1.4,1.5-3.1,1.5h-0.9c0,0,0,0,0,0h-11.9c-1.7,0-3.1-0.7-3.1-1.5  c0-0.8,1.4-1.5,3.1-1.5h0.9h11h0.9C172.1,290.7,173.5,291.4,173.5,292.2 M170.4,289.4h-0.9c0,0,0,0,0,0h-11.9  c-1.7,0-3.1-0.7-3.1-1.5c0-0.8,1.4-1.5,3.1-1.5h0.9h11h0.9c1.7,0,3.1,0.7,3.1,1.5C173.5,288.7,172.1,289.4,170.4,289.4 M177.4,273.6  c0,0,5.8-2,9.4,2.1c-7.6,0.6-12.9,3.5-15,8.7H169c0.6-3.3,1.7-6.5,3.6-9.4c0,0,0.4-0.5-0.4-1c-0.8-0.6-1.1,0.1-1.1,0.1  c-2,3.1-3.2,6.7-3.9,10.3h-2.3c0-3.9,0-7.8,0-11.4c0,0-0.1-0.6-0.9-0.6c-0.8,0-0.8,0.6-0.8,0.6c0,3.7,0,7.6,0,11.4h-2.3  c-0.7-3.7-1.9-7.3-3.9-10.3c0,0-0.3-0.6-1.1-0.1c-0.7,0.5-0.4,1-0.4,1c1.8,2.9,3,6.1,3.6,9.4h-2.8c-2.1-5.2-7.4-8.1-15-8.7  c3.6-4.1,9.4-2.1,9.4-2.1s-4.3-3.7-4.5-8.3c4.5-0.8,9,3.1,9,3.1s-2.3-4.8-0.9-9.4c5.1,1.1,6.9,6.7,6.9,6.7s-0.6-6,2.8-8.9  c0,0,0,0,0,0c0,0,0,0,0,0c3.4,2.9,2.8,8.9,2.8,8.9s1.9-5.7,6.9-6.7c1.5,4.6-0.9,9.4-0.9,9.4s4.5-3.9,9-3.1  C181.7,269.9,177.4,273.6,177.4,273.6 M136.3,176.9c-2.1,0-21.8,0-30,0c0,5.2,0,10.1,0,14.8c0,11,0,21.6,0,35.3  c0.9,0.1,2.4,0.3,4.2,1.7c-1.9,0.9-3.2,3.5-4.2,6.6c0,2.7,0,5.6,0,8.6c0,7.2,2.6,15.4,6.7,23.7l44.3-32.2v-38.1  c-2.8-1.6-5.5-3.8-7.7-5.9l-1.3-1.3l1.3-1.2c1.6-1.5,1.6-3.2,1.4-4.3c-0.5-1.9-2.1-3.7-3.9-4.2c-1.5-0.4-3,0-4.3,1.3l-1.6,1.5  l-1.1-1.9C139,179.3,137.7,177.9,136.3,176.9 M121.5,237.9c1.2-1.8,2.6-3.9,3.9-5.8h10.8c1.3,1.9,2.7,4,3.9,5.8  C134.9,237.9,126.6,237.9,121.5,237.9 M125.4,205.6c-1.3-1.8-2.6-3.9-3.8-5.7h18.6c-1.2,1.8-2.6,3.9-3.8,5.7H125.4z M136.1,230  h-10.5v-22.3h10.5V230z M149.6,194.2c0,0,0,38.9,0,39.5c-0.4,0-0.7,0-1.2,0c-1.5,0.7-3.1,2.4-4.1,4.2c-0.3,0-0.8,0-1.3,0  c-1.4-2.1-3.2-4.7-4.7-7v-24c1.5-2.3,3.3-4.9,4.7-7h1.3l0,34.9c0.7-0.9,2-2,3.3-2.8l0-35.6c-2,0-27.9,0-28.4,0  c-1.3-0.2-3.3,0-3.4,1.5c-0.1,2.3,3.1,2,3.1,2c1.4,2,3.1,4.7,4.7,7v23.9c-1.6,2.4-3.4,5.1-4.8,7.2c-1.7,1-4.5,0.1-5-3.1c0,0,0,0,0,0  c0-0.1,0-0.3,0-0.4c0-0.2,0-0.4,0-0.6v-5c0.7,0.1,2.4,0.3,3.5-0.1c0.7-0.3,1.1-0.9,1-1.5c-2.9-0.1-4-0.7-4.5-1.1V210  c0.8,0.1,2.1,0.2,3-0.2c0.7-0.3,1.1-0.9,1-1.5c-2.2-0.1-3.5-0.5-4.1-0.8v-9.9c0-3.2,3.7-3.8,5.8-3.4  C123.5,194.2,149.6,194.2,149.6,194.2 M99.6,217.8c-1.2,2.7-1.2,7.1-3,9.5c-1.7,2.3,1.2,8.7-2.1,15.1c-2.2,4.3-3.5,5.7-13.5,6.4  c-3,0.2-7.1-0.1-8.1-4.1c-1.6,3.5-1.4,7.2-0.4,10.1c-6.8,2.1-11,4.5-15.6,4.6c0.8,1.1,2,3,5,2.1c16.7-5.7,24.5-6.1,30.2-6.5  c0.6-2.9,8.1-3.5,10.4-6.3c0.1-4.2,0.4-8.2,0.8-12.9c0.4-2.9,1.1-5.5,2.5-7.3c-2.1-0.4-3.4-0.1-4.5,0.6c-0.9,0.4,0.2-10.1,3.6-12.6  c-0.7-0.9-1.8-1.2-2.8-1c0-12.2,0-27.3,0.1-42.7h22.4c0,0,0.9-1.5,1.7-2.6c-1.9,0-26.7,0-26.7,0l0,1.3  C99.6,188.3,99.6,204.9,99.6,217.8 M197.9,171.4c-2.1-1.9-5.4-4-10.4-4.4c0,0-0.6,0-1.6,0.4c-5.2,1.8-8.8,5.6-12.1,9.1  c-2.9,3.1-5.7,6.1-9.2,7c-0.2,0.1-0.3,0.1-0.4,0.1c-0.1,0-0.1,0-0.2,0c-0.1,0-0.2,0-0.2,0c-0.1,0-0.3-0.1-0.4-0.1  c-3.5-0.9-6.3-3.9-9.2-7c-3.3-3.5-7-7.4-12.3-9.2c-1-0.3-1.4-0.3-1.4-0.3c-4.9,0.4-8.3,2.5-10.4,4.4c3.8,0.2,8.5,1.8,11.9,6.5  c1.9-1.1,3.9-1.4,6-0.8c3,0.9,5.5,3.6,6.3,6.7c0.5,2.2,0.1,4.4-1.1,6.3c4,3.6,8.2,6,10.8,6.3c2.6-0.3,6.8-2.7,10.8-6.3  c-1.3-1.8-1.7-4-1.1-6.3c0.8-3.1,3.3-5.8,6.3-6.7c2.1-0.6,4.2-0.3,6,0.8C189.5,173.2,194.2,171.6,197.9,171.4 M186.1,132.6  c-0.2,0.1-0.4,0.1-0.6,0.2c0,0,0,0,0,0c-0.5,0.1-1,0.3-1.6,0.4c-1.9,0.5-3.4,1-4,1.1c-9.3,2.8-16,6.2-16,6.2l0,0l0,0  c0,0-6.6-3.4-16-6.2c-0.6-0.2-2.1-0.6-4-1.1c-0.5-0.1-1-0.3-1.6-0.4c0,0,0,0,0,0c-0.2-0.1-0.4-0.1-0.6-0.2c-0.8-0.2-3.1-2.4-3.8-5.4  c0.4,7.5,1.7,14.8,2.8,20.8c1.2,6.9,2.2,12.3,1.6,15.9c2.2,0.7,4.1,1.6,5.8,2.7c-0.1-3.4-0.7-11.2-2.6-21.1c5.5,5,6.4,19.3,6.5,24.1  c1.7,1.5,3.1,3.1,4.6,4.6c2.6,2.8,4.9,5.2,7.3,5.9c2.5-0.8,4.7-3.2,7.3-5.9c1.4-1.5,2.9-3.1,4.6-4.6c0.1-4.8,0.9-19.1,6.5-24.1  c-2,9.9-2.5,17.7-2.6,21.1c1.7-1.1,3.6-2,5.8-2.7c-0.6-3.7,0.3-9,1.6-15.9c1.1-6,2.4-13.3,2.8-20.8  C189.2,130.2,186.9,132.4,186.1,132.6 M186.6,137.8c-12,5.1-22.6,12.8-22.6,12.8l0,0l0,0c0,0-10.6-7.8-22.6-12.8  c10.5-0.4,22.6,8.3,22.6,8.3l0,0l0,0C164,146.1,176.1,137.4,186.6,137.8 M153.9,108.7c2.5-0.4,5.2-0.7,8.3-0.8  c-2.1-2.5-3.5-6.7-7.9-8.9c-3.3,0.4-6.7,1-9.7,1.6C149.2,102.5,150.3,106.6,153.9,108.7 M171.4,108.4c1.5,0.2,3,0.4,4.4,0.6  c1.7,0.2,3.2,0.4,4.8,0.8c-2.1-2.6-2.4-7.5-6.5-10.8c-3.5-0.4-7-0.7-10-0.7c-0.4,0-0.7,0-1.1,0C167.8,101,168.1,105.6,171.4,108.4   M173.7,112.1c-2.4-0.4-4.9-0.7-7.8-0.8c-0.1,2.4-0.7,10.9-1.8,19.2c0,0.1,0,0.2,0,0.3c0,0,0,0,0,0c0,0,0,0,0,0c0-0.1,0-0.2,0-0.3  c-1.1-8.2-1.7-16.8-1.8-19.2c-2.9,0.1-5.4,0.4-7.8,0.8c-5.5,1.4-9.3,4.3-12.4,8.7c-0.2,2.2-0.1,3.6,0.2,4.7c1.4-2.7,4.7-7.5,12-10.3  c-5.2,3.6-7.7,9.9-8.9,14c0.6,0.2,1.2,0.4,2,0.6c0.7-0.4,1.5-0.9,2.5-1.3c8.3,0.7,14.4,4.4,14.4,4.4l0,0l0,0c0,0,6-3.7,14.4-4.4  c0.9,0.4,1.7,0.9,2.5,1.3c0.7-0.2,1.4-0.4,2-0.6c-1.2-4.1-3.8-10.5-8.9-14.1c7.2,2.8,10.6,7.6,12,10.3c0.3-1.1,0.4-2.6,0.2-4.7  C182.9,116.5,179.2,113.6,173.7,112.1 M271.1,259.5c-4.5-0.1-8.8-2.5-15.6-4.6c1.1-2.8,1.3-6.6-0.4-10.1c-1,4-5.1,4.4-8.1,4.1  c-10-0.8-11.3-2.1-13.5-6.4c-3.3-6.4-0.4-12.8-2.1-15.1c-1.8-2.4-1.7-6.8-3-9.5c0-12.9,0-29.5-0.1-46.2l0-1.3c0,0-24.8,0-26.7,0  c0.8,1.1,1.7,2.6,1.7,2.6h22.4c0.1,15.4,0.1,30.5,0.1,42.7c-1.1-0.2-2.2,0-2.8,1c3.4,2.5,4.5,13,3.6,12.6c-1.1-0.7-2.3-0.9-4.5-0.6  c1.4,1.8,2.1,4.4,2.5,7.3c0.4,4.8,0.7,8.7,0.8,12.9c2.3,2.8,9.8,3.4,10.4,6.3c5.7,0.4,13.5,0.9,30.2,6.5  C269.1,262.5,270.3,260.6,271.1,259.5 M321,324.1c-0.4-3.4-2.5-7.2-4.7-9.2c4.8-6,8.8-9.6,15.6-12.8c10.5,3.3,10.3,15.6,7.8,19.3  c-9,5.9-14.5,15.5-21.2,19.9c0,0,0,0,0,0c0.1-0.1,0.2-0.3,0.3-0.4c0.4-0.6,0.7-1.3,1.1-2c2.1-4.4,2.3-9.2,1.2-13.5  c-4.6-0.3-9.5-1.6-13.8-2.9c-8.5-2.6-21.5-10.1-35.2-18.1c-0.6-0.4-1.3-0.7-1.9-1.1c1.7,0.1,3.4,0.3,5.3,0.4c2.5,0.1,6-0.3,7.7-0.9  c1.9-0.6,3.3-1.4,4.4-1.6c2-0.5,2.7-0.2,3.5,0c-0.4-4.5,7.3-17.3,7.5-18.7c0.1-1.4-0.1-4.3-0.3-5.8c0,0-0.6-11.3,4.1-15.1  c2.8,4.6,8.7,8.9,17,14.5c2.4,4.8,6.5,8.7,8.6,8.5c-1.1-2.1-2.8-4.2-3.2-8.2c3.6,5,6.3,11.1,12.5,13.8c-1.6-1.9-4.3-4.6-5-9.7  c4.9,8,11.6,12.1,16.2,14.4c-15.1-17.9-15.2-30.2-15.2-30.2c-2.4-1.6-5.1-3.3-8.1-4.9c1.1,2.8,2.7,7.5,3.8,12  c-2.7-6.3-6.1-11-8.9-14.2c0.8,2.6,1.8,6.5,2.2,10.4c-2.7-5.6-6.1-10.4-8.6-13.7c0.9,2.5,1.8,6,2.4,10.4c-2-4.5-4.5-8.8-6.8-12.3  c-7.2-2.4-4.6,2.7-4.6,2.7c0,0-10-12.8-23-13.2c3.4,1.5,11.1,7.3,10,6.9c-3.6-1.3-7-2.7-8.4-2.7c-5,0-0.5,5.1,2.1,10.5  c3.7,7.9,6,13.6,7,17.6c-4.5,0-6.1-8.4-16.2-13.7c4.3,4.6,6.9,8.1,8.5,11.6c2.8,6.1,2.8,12,2.2,15.9c-1.3,8.9-7.7,9-13,7.4  c-6.5-2-12.6-2.7-16.8-5c-4.1-1.9-7.9,0.4-7.9,0.4s-0.2,0.2-0.5,0.5c-12.9-6.8-25-12-32.6-11.5c5.7-9.3,9.7-18.4,11.4-26.7  c-1.2-0.4-2.5-1.2-2.5-1.2c-2.1,10.5-8,22.2-15.7,33.2c-0.4,0.5-0.8,1.1-1.1,1.6c-0.2,0.2-0.3,0.5-0.5,0.7c-1.5,2.1-2.9,3.9-4.3,5.6  c-2.1,2.7-4.4,5.3-6.6,7.8h0c-10.7,11.8-22.6,21.4-32.7,26c-22.8-10.4-55.1-46.7-60.8-74.9c0,0-1.2,0.8-2.5,1.2  c1.8,8.3,5.7,17.4,11.5,26.8c-7.5-0.6-19.7,4.6-32.6,11.5c-0.3-0.3-0.5-0.5-0.5-0.5s-3.8-2.3-7.9-0.4c-4.2,2.3-10.3,3-16.8,5  c-5.3,1.6-11.7,1.5-13-7.4c-0.6-3.9-0.6-9.8,2.2-15.9c1.6-3.5,4.2-7,8.5-11.6c-10.1,5.3-11.6,13.7-16.2,13.7c1-3.9,3.2-9.7,7-17.6  c2.6-5.5,7.1-10.5,2.1-10.5c-1.4,0-4.8,1.3-8.4,2.7c-1.1,0.4,6.5-5.4,10-6.9c-13,0.4-23,13.2-23,13.2c0,0,2.5-5.1-4.6-2.7  c-2.3,3.4-4.8,7.7-6.8,12.3c0.6-4.4,1.5-7.9,2.4-10.4c-2.5,3.3-5.8,8.1-8.6,13.7c0.3-3.9,1.3-7.8,2.2-10.4  c-2.8,3.2-6.2,7.9-8.9,14.2c1.1-4.5,2.7-9.1,3.8-12c-3,1.6-5.7,3.3-8.1,4.9c0,0-0.2,12.3-15.2,30.2c4.7-2.3,11.4-6.4,16.3-14.4  c-0.6,4.5-3.4,7.8-5,9.7c6.1-2.8,8.9-8.8,12.5-13.8c-0.2,3.6-2,6-3.2,8.2c2.1,0.2,6.2-3.7,8.6-8.5c8.4-5.6,14.2-9.8,17-14.5  c7.6,6.9,3.3,18.5,3.8,20.7c1.1,4.7,6.1,9.4,7.5,18.9c0.8-0.1,1.5-0.5,3.5,0c1.1,0.3,2.5,1.1,4.4,1.6c1.7,0.6,5.2,1,7.7,0.9  c1.9-0.1,3.6-0.3,5.2-0.3c-0.6,0.4-1.3,0.7-1.9,1.1c-13.8,8-26.8,15.5-35.2,18.1c-4.3,1.3-9.5,2.5-14.1,2.8  c-0.8,4.3-0.6,9.1,1.4,13.5c0.4,0.7,0.7,1.4,1.1,2c0.1,0.1,0.2,0.3,0.3,0.4c0,0,0,0,0,0.1c-6.7-4.4-12.2-14-21.2-19.9  c-2.5-3.8-2.8-16.1,7.8-19.3c6.8,3.3,10.8,6.8,15.6,12.8c-2.3,2-4.3,5.8-4.7,9.2c1-4.5,6.6-7.8,9.1-8.8c-1.3-2.3-8.9-11.9-19-16.9  c-13.2,0.4-17.3,20.7-10.5,25.7c2.8,0.9,4.3,2.6,6.3,4.8c6.9,7.5,13.5,20,28.1,17.6c0.4-0.1,0.8-0.1,1.1-0.2c0.2,0,0.4-0.1,0.6-0.1  c13.4-2.8,29-11.8,45.5-21.4c20.6-11.9,41.5-24.2,59.3-24.2c2.7,3.1,5.6,6.1,8.4,8.8c-0.2,3.6-1.7,8-5.2,13.3  c3.2-2.9,6.3-7.1,7.8-10.8c7.1,6.6,14.3,12.1,20.9,15.6c-11.1-0.2-23.3-0.7-34.1-2c0,0,0,0,0,0c-5.3-0.8-13.6-4.8-7.4-8.1  c6.5-3.4,6.2-9.7,3.4-12.5c1.9,5.2-5.9,10.1-9.9,11.9c-1.5,0.7-1.5,2.3-0.6,4.3c0.3,0.7,1.2,2.3,1.8,3.2c1,1.5,2.1,3.1,3.1,4.4  c3.5,5.1,6.8,10.6,9.9,18c4.9,2.9,23.8,5,38.3,5.1c14.5-0.1,33.3-2.2,38.3-5.1c3.1-7.3,6.4-12.7,9.8-17.8c1-1.5,2.3-3.2,3.3-4.9  c0.7-0.9,1.5-2.5,1.7-3.2c0.8-1.9,0.8-3.4-0.7-4.1c-4-1.8-11.8-6.7-9.9-11.9c-2.8,2.8-3,9.1,3.4,12.5c6.3,3.3-2.1,7.3-7.4,8.1  c0,0,0,0,0,0c-10.8,1.4-23.1,1.9-34.1,2c6.5-3.5,13.8-9,20.9-15.6c1.5,3.7,4.6,7.9,7.8,10.8c-3.5-5.3-5-9.7-5.2-13.3  c2.8-2.8,5.7-5.7,8.4-8.8c17.8,0.1,38.9,12.3,59.3,24.2c16.5,9.6,32.1,18.6,45.5,21.4c0.7,0.1,1.4,0.2,2,0.3  c14.3,2.2,21-10.2,27.8-17.7c2-2.2,3.5-3.9,6.3-4.8c6.9-5,2.8-25.3-10.5-25.7c-10,5-17.7,14.6-19,16.9  C314.4,316.2,320,319.5,321,324.1 M68.2,320.1c-1-1.7-4.5-7.9-5.6-9.7c-0.5-0.8-1.4-0.8-1.7-0.7c0.2-1,0.4-2,0.6-3.1  c0.2-0.1,2.4-1.4,4-2.3c5.2-3,10.3,3.1,5.2,7.1c1.8,0.9,3,1.3,4.5,1.5c2.5,0.3,3.8-0.8,3.9-1.4c-0.3,1.3-1.6,4.4-4.3,4.3  c-1.5-0.1-3.8-0.7-7.3-2.7c0.4,0.8,1,1.7,1.4,2.4c0.6,1,1.1,1.1,1.5,1.1C69.9,317.5,68.9,319,68.2,320.1 M32.1,336.2  c0.5-0.2,2.7-1.1,3-1.3c0.3-0.1,1.2-0.5,1.2-1.2c0.8,0.5,2,1.3,2.8,1.8c-1,0.4-7.6,3.2-8.9,3.8c-1.1-2.6-3.4-8-4.2-9.9  c-0.4-0.9-1.3-1-1.6-0.9c0.3-1,0.6-2,0.9-3c0.6,0.1,2.5,0.6,3.4,2.7C29.2,329.3,31.1,333.9,32.1,336.2 M38.5,323.9  c0.5,1.1,2.2,4.6,3.3,6.8c0.5,1,1,1.2,1.4,1.2c-0.6,0.8-1.7,2.3-2.5,3.4c-1.2-2.5-3.9-8.2-4.8-10.1c-0.4-0.9-1.3-0.9-1.6-0.8  c0.3-1,0.5-2,0.8-3C35.6,321.4,37.6,321.9,38.5,323.9 M50.7,321c3.3-0.1,6.3,4.7,2,7.9c-1.2,0.9-2.5,1.6-6.1,3.3  c-1-1.7-4.3-7.6-5.3-9.4c-0.5-0.8-1.4-0.8-1.7-0.7c0.2-1,0.4-2,0.6-3c0.2-0.1,2.4-1.3,4-2.2C49.3,313.9,52.4,318.3,50.7,321   M59.2,308c-0.2,1.5-0.4,2.4-0.6,3.5c-0.3-0.2-0.8-0.2-1.7,0.3c-1,0.6-1.2,0.7-2.6,1.5c0.4,0.3,0.8,0.8,1.2,1.3  c0.2,0.3,0.6,1,1.2,2.1c1.5-0.9,4.3-2.5,4.7-2.7c-0.2,1.5-0.4,2.4-0.6,3.5c-0.3-0.3-0.8-0.3-1.7,0.3c-0.4,0.2-0.8,0.5-1.3,0.8  c0.8,1.3,1.5,2.6,2.1,3.6c1.4-0.8,1.8-1.1,2.8-1.6c0.3-0.2,1.1-0.7,1.1-1.3c0.9,0.5,2,1,3,1.4c-1.7,1-6.9,4-8.4,4.9  c-1.4-2.4-4.4-7.5-5.4-9.3c-0.5-0.8-1.4-0.8-1.7-0.7c0.2-1,0.5-2.6,0.5-3.1C54.7,310.6,56.1,309.8,59.2,308 M77.3,292.4  c-2.1,1.1-4.1,2.2-6.2,3.4c0.1,0.5,0,1.4-0.5,2.7c-1.1-1.6-3.9,0.3-6.2,1.6c-0.3,1,0.9,1.5-1.1,2.8c-0.2-0.4-0.6-1-1.4-1.8  c-1.9-1.9-9.5-0.3-8-2.1c2-2.1,13.2-3.9,17.7-6.7C73.6,290.9,75.9,291.7,77.3,292.4 M85.5,308.5c-0.5,0.8-1.6,2.3-2.3,3.5  c-1.3-2.5-4.5-8.3-5.4-10.1c-0.4-0.8-1.2-1-1.8-0.7c-0.9,0.5-1,0.5-1.7,0.9c-1,0.5-1.4,1.1-1.8,1.7c0.2-0.9,0.6-3,0.7-3.5  c1.7-0.9,8.9-4.7,10.5-5.6c-0.3,1.5-0.5,2.4-0.7,3.5c-0.3-0.3-0.8-0.3-1.7,0.2c-0.1,0.1-0.8,0.4-1.9,1c0.5,0.2,0.9,0.7,1.1,1.2  c0.6,1.1,2.4,4.6,3.6,6.8C84.7,308.4,85.2,308.5,85.5,308.5 M95.6,299.7c2.7-1.3,2.7-2.7,2.5-3.2c0.6,1,1.3,3-0.8,4.6  c0.6,0.5,1.3,0.9,1.9,0.7c-0.5,0.7-1.5,2-2.2,2.9c-0.3-0.3-1.4-1.1-2.6-2.1c-1.6,0.8-3.8,1.8-4.7,2.2c0,1.6,0,2.9,0,2.9l-2.4,1.1  L87,292.6C87,292.6,92.2,296.9,95.6,299.7 M104.6,301.3c-1.6,0.6-3.7,0.8-5.1-0.3l1.9-2.2c0.2,0.7,1.2,1.1,2.5,0.6  c1.4-0.6,1.9-1.7,1.5-2.8c-0.5-1.2-1.6-1.2-3.5-1.2c-2.6,0.1-4.6-0.6-5.3-2.6c-0.9-2.3,0.3-4.9,3.6-6.2c1.5-0.6,3.2-0.7,4.2-0.4  l-1,2.8c-0.2-0.6-1-1.2-2.6-0.5c-1.6,0.6-2.1,1.8-1.7,2.7c0.4,1.1,1.7,1.2,3.7,1.1c2.6-0.1,4.3,0.5,5.1,2.6  C109,297.3,108.1,300,104.6,301.3 M184.1,340.7c0.2-0.4,1.1-2.7,4.2-2.7c2.1,0,3.2,1.8,5.1,1.8c1,0,2.1-0.1,3.3-1.2  c-0.6,1.4-1.9,2.7-4.1,2.7c-2.3,0-2.8-1.7-5-1.8C187.2,339.6,185.8,339.4,184.1,340.7 M169.8,334.2c0.7-0.8,1.3-1.6,2-2.4h4.6  c6,0,7.4,7.8,1,8.7c1.1,1.7,2,2.6,3.2,3.5c2,1.5,3.7,1.1,4.1,0.8c-0.9,1-3.6,3.1-5.9,1.6c-1.2-0.8-2.9-2.5-4.9-6c0,0.9,0,2,0,2.8  c0,1.2,0.4,1.5,0.7,1.7c-1,0.5-2.6,1.4-3.7,1.9c0-2,0-9.1,0-11.2C170.9,334.7,170.1,334.3,169.8,334.2 M143.5,338.6  c-0.6,1.4-1.9,2.7-4.1,2.7c-2.3,0-2.8-1.7-5-1.8c-0.3,0-1.8-0.2-3.5,1.1c0.2-0.4,1.1-2.7,4.2-2.7c2.1,0,3.2,1.8,5.1,1.8  C141.2,339.8,142.3,339.6,143.5,338.6 M150.2,341c0,0.5,0,1.2,0,2.2c0,1.1,0.4,1.4,0.7,1.6c-1.1,0.6-2.6,1.4-3.7,2v-11.2  c0-0.9-0.8-1.4-1.1-1.4c0.7-0.8,1.3-1.6,2-2.4v0c0,0,0,0,0,0h4.6C159.7,331.8,160.3,343.1,150.2,341 M169.4,331.8  c-0.9,1.1-1.6,1.9-2.3,2.7c-0.1-0.4-0.6-0.6-1.6-0.6c-1.1,0-1.4,0-3,0c0.2,0.5,0.3,1.1,0.3,1.7c0,0.3,0,1.1,0,2.4c1.8,0,5,0,5.4,0  c-0.9,1.1-1.6,1.9-2.3,2.7c-0.1-0.4-0.6-0.6-1.6-0.6c-0.5,0-0.9,0-1.5,0v4.2c1.6,0,2.1,0,3.3,0c0.3,0,1.3,0,1.6-0.6  c0.6,0.9,1.2,1.8,1.9,2.7h-9.7c0-2.8,0-8.7,0-10.8c0-0.9-0.8-1.4-1.1-1.4c0.7-0.8,1.7-2,2-2.4C164.3,331.8,165.8,331.8,169.4,331.8   M247.3,312.5c1.4-2.4,4.4-7.6,5.4-9.4c0.5-0.8,0-1.6-0.3-1.8c1-0.3,2.5-0.9,2.9-1.1c3,1.7,4.4,2.5,7.5,4.3  c-1.4,0.5-2.3,0.9-3.4,1.2c0.1-0.4-0.2-0.9-1.1-1.3c-1-0.6-1.2-0.7-2.6-1.5c-0.1,0.5-0.2,1.1-0.6,1.7c-0.2,0.3-0.6,1-1.2,2.1  c1.5,0.9,4.3,2.5,4.7,2.7c-1.4,0.5-2.3,0.9-3.3,1.2c0.1-0.4-0.2-0.8-1.1-1.3c-0.4-0.2-0.8-0.5-1.3-0.8c-0.8,1.3-1.5,2.6-2.1,3.7  c1.4,0.8,1.9,1.1,2.8,1.6c0.3,0.1,1.1,0.7,1.7,0.3c0.1,1,0.1,2.2,0.2,3.3C254,316.4,248.8,313.4,247.3,312.5 M221.1,286.8l-2.6,1.4  c0.3-0.6,0.1-1.5-1.5-2.1c-1.6-0.6-2.7-0.1-3.1,0.8c-0.5,1.1,0.4,2,1.9,3.4c1.9,1.7,2.8,3.3,2,5.4c-0.9,2.3-3.4,3.5-6.8,2.2  c-1.6-0.6-3.2-2-3.5-3.7l2.9-0.3c-0.3,0.6,0.1,1.7,1.4,2.2c1.4,0.6,2.6,0.1,3-1c0.5-1.2-0.3-2-1.7-3.2c-1.5-1.3-2.4-2.7-2.4-4.2  c0.8-1.2,1.7-2.3,2.4-3.5c1.2-0.5,2.8-0.5,4.6,0.2C219.3,284.9,220.5,285.9,221.1,286.8 M232.3,297.6c-0.2,0.8-1.1,2.2-2.6,2.6  c0.1,0.8,0.1,1.9,0.8,2.4c-1.6,0.2-2.5,0.3-3.6,0.4c-0.1-0.6-0.2-3.1-0.2-3.4c-1.4-0.5-3.9-1.5-4.9-1.9c-1.2,1.1-2.1,2-2.1,2l-2.5-1  l11.6-11.4c0,0,0.5,7.3,0.8,11.1C231.3,298.7,232.1,298,232.3,297.6 M236.7,300.9c-0.2,0.4-0.5,1-1,1.9c-0.5,1-0.3,1.4-0.1,1.8  c-1.2,0-3,0.1-4.2,0.1c1.3-2.5,4.1-8.2,5-10c0.4-0.8-0.1-1.6-0.4-1.8c1-0.4,1.9-0.8,2.8-1.2c0,0,0,0,0,0c0,0,0,0,0,0  c1.8,0.9,2.4,1.2,4.1,2C249.3,296.9,244.7,307.3,236.7,300.9 M250.3,297.7c0.3,0.5,1.1,2.4,0,4.4c-0.6,1.1-2.5,4.4-3.7,6.6  c-0.6,1-0.4,1.5-0.2,1.8c-1,0-2.8-0.1-4.2-0.1c1.4-2.4,4.5-8,5.5-9.8c0.5-0.8,0-1.6-0.3-1.8C248.4,298.4,249.4,298,250.3,297.7   M266.1,300.9c-0.7,0.7-1.1,1.2-1.3,1.6c-0.9-0.9-1-1.8-1.3-2.5c-2.3-1.3-5-3.2-6.2-1.6c-0.5-1.3-0.6-2.1-0.5-2.7  c-2.1-1.1-4.1-2.3-6.2-3.4c1.5-0.8,3.8-1.5,5.7-0.3c4.5,2.8,15.7,4.5,17.7,6.7C275.6,300.6,268,299,266.1,300.9 M266.4,303.4  c0,0.1-0.1,0.1-0.1,0.2c-0.1,0-0.1-0.1-0.2-0.1C266.2,303.5,266.3,303.5,266.4,303.4 M272.8,313.7c-0.5,0.8-3.8,6.5-4.8,8.1  c-0.4,0.7-0.3,1.1-0.2,1.3c-0.7,0-3.1-0.1-3.1-0.1s-0.9-7.2-1.3-11.5c-1.1,1.9-2.8,4.7-3.3,5.6c-0.4,0.7-0.3,1.1-0.2,1.3  c-0.7,0-2.1-0.1-3.1-0.1c1.1-1.8,4.9-8.4,5.7-9.7c0.5-0.8,0-1.6-0.2-1.8c1.2-0.4,2.1-0.7,2.9-1c1.2,2,2.1,12.8,2.1,12.8  c1.5-2.6,3.1-5.3,3.6-6.1c0.4-0.6,0-1.2-0.2-1.4c0.7-0.3,1.5-0.5,2.2-0.8C273.1,310.8,273.6,312.2,272.8,313.7 M287.7,318.5  c-1.4,0.5-2.3,0.9-3.3,1.2c0.1-0.4-0.2-0.8-1.1-1.3c-0.1-0.1-0.8-0.5-1.9-1.1c0.1,0.5-0.2,1.1-0.4,1.6c-0.6,1-2.6,4.5-3.8,6.7  c-0.6,1-0.4,1.5-0.2,1.8c-1,0-2.8-0.1-4.2-0.1c1.4-2.4,4.7-8.2,5.7-10c0.5-0.8,0.2-1.5-0.4-1.9c-0.9-0.5-0.9-0.5-1.7-1  c-1-0.6-1.7-0.6-2.4-0.6c0.8-0.3,2.8-1,3.4-1.2C279,313.5,286,317.6,287.7,318.5 M289.3,323.8c-0.6,1-2.5,4.4-3.8,6.5  c-0.6,1-0.4,1.5-0.2,1.8c-1,0-2.8-0.1-4.2-0.2c1.4-2.4,4.6-7.9,5.7-9.7c0.5-0.8,0-1.6-0.2-1.8c1-0.3,1.9-0.7,2.9-1  C289.7,319.9,290.5,321.8,289.3,323.8 M300.6,333.6c-0.3,0.8-1.2,2.2-2.7,2.4c0,0.9,0,1.9,0.7,2.4c-1.6,0.1-2.5,0.1-3.7,0.2  c0-0.6,0-3.2,0-3.4c-1.3-0.6-3.8-1.7-4.7-2.2c-1.2,1.1-2.2,1.9-2.2,1.9l-2.4-1.1l12.3-10.7c0,0,0,7.3,0.1,11.1  C299.5,334.7,300.4,334,300.6,333.6 M316.3,332.9c-0.3,1.2-1.3,4.9-2,7.3c-0.3,1.1,0,1.5,0.2,1.8c-1,0.2-2.7,0.6-4.1,0.9  c0.5-1.7,1.3-4.7,1.9-7.2l-5.7,6.2l-2.2-8.4c-0.5,1.7-1,3.9-1.3,4.6c-0.2,0.8,0,1.1,0.2,1.3c-0.7,0.2-2,0.5-3.1,0.7  c0.6-2,2.5-9.4,2.9-10.9c0.2-0.8-0.4-1.5-0.7-1.6c0.6-0.4,1.9-1.3,2.5-1.8c0.4,0.4,0.8,1.1,1,1.8c0.3,1.3,1.5,6,2.3,9  c2.1-2.2,3.4-3.5,4.5-4.7c0.5-0.6,0.4-1.4-0.2-1.6c0.9-0.6,1.7-1.2,2.6-1.8C315.7,329.1,316.9,330.7,316.3,332.9 M291.8,331.6  c0.7,0.3,1.8,0.8,3,1.4c0-1.4,0-2.8,0-3.9C294.2,329.6,293,330.6,291.8,331.6 M241.5,295.3c-0.8-0.4-1.4-0.7-1.9-0.9  c0,0.5-0.2,1.1-0.5,1.7c-0.4,0.8-1.4,2.9-2.4,4.8c0.6-0.3,1.8-0.8,2.5-1.1C242.3,302.3,244.8,297,241.5,295.3 M223.5,296.1  c0.7,0.3,1.9,0.7,3.1,1.2c-0.1-1.4-0.2-2.8-0.3-3.9C225.7,293.9,224.6,295,223.5,296.1 M152,333.9h-2.1c0.2,0.5,0.3,1.1,0.3,1.7v5.4  c0.4-0.5,1.3-1.5,1.8-2.1C155.8,339.7,155.8,333.9,152,333.9 M173.9,335.7v4.8c0.2-0.2,1.2-1.4,1.7-2c3.8,0.8,3.9-4.4,0.1-4.4h-2.2  C173.8,334.4,173.9,335,173.9,335.7 M89.6,302.5c0.6-0.3,1.8-0.8,3-1.4c-1.2-1-2.4-2-3-2.5C89.6,299.4,89.6,300.9,89.6,302.5   M47.7,324c-0.4,0.2-1,0.6-1.6,0.9c0,0.1,0.1,0.1,0.1,0.2c0,0,0,0,0,0c0,0,0,0,0,0c0.9,1.7,1.9,3.4,2.1,3.7c1.2-0.5,1.7-0.8,2.2-1.1  C53.5,326,51.5,322,47.7,324 M44.7,318.8c-0.8,0.5-1.4,0.8-1.9,1.1c0.4,0.3,0.8,0.8,1.1,1.3c0.2,0.4,1.1,2,2.1,3.7  c0.2-1,0.4-2.1,0.5-2.6C50.3,321.1,48,317,44.7,318.8 M65.3,308.9c0.4,0.7,1.4,2.4,2.4,4.1c0.1-0.3,0.3-1.9,0.5-2.6  c3.7-1.2,1.2-5.8-2.1-3.9c-0.8,0.5-1.4,0.8-1.9,1.1C64.6,307.9,65,308.3,65.3,308.9"/>
</svg>